<svg xmlns="http://www.w3.org/2000/svg" version="1.1" xmlns:xlink="http://www.w3.org/1999/xlink" xmlns:svgjs="http://svgjs.dev/svgjs" width="1000" height="1125" viewBox="0 0 1000 1125"><g transform="matrix(1,0,0,1,0,0)"><svg viewBox="0 0 320 360" data-background-color="#ffffff" preserveAspectRatio="xMidYMid meet" height="1125" width="1000" xmlns="http://www.w3.org/2000/svg" xmlns:xlink="http://www.w3.org/1999/xlink"><g id="tight-bounds" transform="matrix(1,0,0,1,0,0)"><svg viewBox="0 0 320 360" height="360" width="320"><g><svg></svg></g><g><svg viewBox="0 0 320 360" height="360" width="320"><g><path xmlns="http://www.w3.org/2000/svg" d="M160 42.18c72.417 0 131.943 56.114 137.63 127.014h22.37c-1.137-17.82-5.308-34.882-12.133-51.185-7.962-18.957-19.716-36.398-34.502-50.805-14.787-14.787-31.848-26.161-50.806-34.503-20.095-8.341-40.948-12.891-62.559-12.891-21.611 0-42.464 4.171-62.559 12.512-18.957 7.962-36.398 19.716-50.806 34.503-14.787 14.787-26.161 31.848-34.502 50.805-6.825 16.303-10.995 33.744-12.133 51.185h22.37c5.687-70.521 65.213-126.635 137.63-126.635zM160 318.199c-72.417 0-131.943-56.114-137.63-127.014h-22.37c1.137 17.82 5.308 34.882 12.133 51.185 7.962 18.957 19.716 36.398 34.502 50.805 14.787 14.787 31.848 26.161 50.806 34.503 19.716 8.341 40.569 12.512 62.559 12.512 21.991 0 42.464-4.171 62.559-12.512 18.957-7.962 36.398-19.716 50.806-34.503 14.787-14.787 26.161-31.848 34.502-50.805 6.825-16.303 10.995-33.744 12.133-51.185h-22.37c-5.687 70.9-65.213 127.014-137.63 127.014z" fill="#233565" fill-rule="nonzero" stroke="none" stroke-width="1" stroke-linecap="butt" stroke-linejoin="miter" stroke-miterlimit="10" stroke-dasharray="" stroke-dashoffset="0" font-family="none" font-weight="none" font-size="none" text-anchor="none" style="mix-blend-mode: normal" data-fill-palette-color="tertiary"></path></g><g transform="matrix(1,0,0,1,70.08999999999999,90.08999999999999)"><svg viewBox="0 0 179.82000000000002 179.82000000000002" height="179.82000000000002" width="179.82000000000002"><g><svg viewBox="0 0 179.82000000000002 179.82000000000002" height="179.82000000000002" width="179.82000000000002"><g><svg viewBox="0 0 179.82000000000002 179.82000000000002" height="179.82000000000002" width="179.82000000000002"><g id="textblocktransform"><svg viewBox="0 0 179.82000000000002 179.82000000000002" height="179.82000000000002" width="179.82000000000002" id="textblock"><g><svg viewBox="0 0 179.82000000000002 179.82000000000002" height="179.82000000000002" width="179.82000000000002"><g transform="matrix(1,0,0,1,36.93002441959793,36.93002441959793)"><svg viewBox="0 0 105.95995116080417 105.95995116080417" height="105.95995116080417" width="105.95995116080417"><g><circle r="53" cx="52.97997558040208" cy="52.97997558040208" fill="#8bd8bc" data-fill-palette-color="accent"></circle><svg xmlns="http://www.w3.org/2000/svg" xmlns:xlink="http://www.w3.org/1999/xlink" version="1.1" x="15.893992674120625" y="15.893992674120625" viewBox="17.899999618530273 25.399999618530273 60.29999542236328 45.19999694824219" enable-background="new 0 0 96 96" xml:space="preserve" height="74.17196581256292" width="74.17196581256292" class="icon-o-0" data-fill-palette-color="quaternary" id="o-0"><g fill="#ffffff" data-fill-palette-color="quaternary"><polygon points="53.7,48.9 49.9,52.1 42.9,45.1 35.3,55.3 59.4,55.3  " fill="#ffffff" data-fill-palette-color="quaternary"></polygon><path d="M17.9 25.4v45.2h60.3V25.4H17.9zM62.6 58.5H32.1V35.6h30.5V58.5z" fill="#ffffff" data-fill-palette-color="quaternary"></path></g></svg></g></svg></g><g><path d="M3.46 59.713v0c0.478-1.385 1.015-2.431 1.61-3.137 0.59-0.715 1.332-1.115 2.223-1.2 0.886-0.087 2.03 0.112 3.434 0.597v0c1.391 0.48 2.416 1.027 3.074 1.64 0.658 0.613 1.004 1.357 1.039 2.231 0.032 0.881-0.174 1.967-0.62 3.258v0c-0.242 0.702-0.491 1.37-0.745 2.005-0.254 0.635-0.509 1.209-0.763 1.724-0.249 0.517-0.477 0.954-0.684 1.311-0.209 0.363-0.37 0.605-0.483 0.727v0l-1.393-0.565c0.305-0.884 0.621-1.798 0.947-2.745 0.327-0.946 0.653-1.892 0.98-2.838v0c0.252-0.79 0.366-1.445 0.342-1.965-0.018-0.518-0.231-0.956-0.64-1.316-0.401-0.363-1.037-0.695-1.907-0.995v0c-0.877-0.303-1.589-0.436-2.135-0.4-0.537 0.032-0.979 0.244-1.324 0.637-0.346 0.393-0.654 0.98-0.925 1.763v0c-0.474 1.372-0.877 2.559-1.208 3.56-0.325 1.003-0.532 1.682-0.619 2.037v0l-2.025-0.32c0.145-0.644 0.299-1.251 0.46-1.819 0.159-0.562 0.348-1.17 0.567-1.824 0.215-0.662 0.48-1.451 0.795-2.366zM1.638 65.722l0.847-2.453 16.901 5.835-0.848 2.453z" fill="#233565" data-fill-palette-color="primary"></path><path d="M13.754 40l1.445-2.156 14.85 9.957-1.445 2.156z" fill="#233565" data-fill-palette-color="primary"></path><path d="M31.76 20.345v0c0.59-0.503 1.105-0.921 1.545-1.253 0.445-0.336 0.87-0.624 1.275-0.865 0.405-0.25 0.843-0.483 1.312-0.699v0l1.067 1.651c-0.428 0.295-0.822 0.579-1.182 0.851-0.36 0.272-0.739 0.564-1.135 0.876-0.397 0.321-0.865 0.712-1.405 1.172v0c-0.842 0.718-1.366 1.448-1.571 2.188-0.21 0.745-0.086 1.59 0.37 2.534 0.447 0.943 1.242 2.086 2.387 3.428v0c1.144 1.342 2.146 2.308 3.007 2.898 0.86 0.6 1.674 0.855 2.443 0.766 0.764-0.085 1.567-0.487 2.409-1.205v0c0.853-0.727 1.556-1.357 2.112-1.892 0.559-0.529 1.082-1.071 1.568-1.624v0l1.461 1.315c-0.434 0.666-0.926 1.295-1.476 1.886-0.55 0.591-1.279 1.274-2.187 2.048v0c-1.317 1.123-2.565 1.795-3.744 2.015-1.184 0.226-2.389-0.023-3.616-0.746-1.231-0.719-2.587-1.946-4.066-3.681v0c-1.48-1.735-2.477-3.268-2.992-4.597-0.524-1.33-0.581-2.562-0.171-3.696 0.409-1.124 1.272-2.248 2.589-3.37z" fill="#233565" data-fill-palette-color="primary"></path><path d="M56.281 6.188v0c1.351-0.567 2.488-0.864 3.411-0.892 0.926-0.036 1.719 0.25 2.377 0.858 0.655 0.602 1.27 1.588 1.844 2.958v0c0.569 1.357 0.845 2.485 0.827 3.384-0.018 0.899-0.342 1.653-0.971 2.262-0.635 0.611-1.582 1.181-2.842 1.71v0c-0.685 0.287-1.348 0.548-1.991 0.781-0.642 0.234-1.241 0.427-1.794 0.58-0.551 0.159-1.029 0.281-1.433 0.364-0.41 0.086-0.698 0.127-0.864 0.125v0l-0.507-1.416c0.862-0.362 1.755-0.736 2.677-1.123 0.923-0.387 1.846-0.774 2.77-1.161v0c0.756-0.339 1.321-0.691 1.692-1.055 0.374-0.358 0.559-0.81 0.554-1.354 0.003-0.541-0.173-1.236-0.53-2.085v0c-0.359-0.856-0.734-1.475-1.124-1.858-0.382-0.379-0.834-0.567-1.357-0.563-0.523 0.004-1.167 0.166-1.932 0.486v0c-1.339 0.562-2.492 1.052-3.458 1.473-0.964 0.426-1.608 0.725-1.932 0.896v0l-1.111-1.723c0.577-0.321 1.131-0.611 1.663-0.87 0.525-0.256 1.104-0.521 1.737-0.793 0.637-0.281 1.401-0.609 2.294-0.984zM50.587 8.835l2.394-1.004 6.915 16.488-2.393 1.004z" fill="#233565" data-fill-palette-color="primary"></path><path d="M85.197 0.033v0c1.31-0.086 2.435-0.003 3.374 0.247 0.947 0.25 1.717 0.711 2.313 1.383 0.595 0.665 1.057 1.585 1.387 2.759 0.329 1.174 0.552 2.641 0.667 4.401v0c0.114 1.74 0.085 3.217-0.088 4.431-0.173 1.214-0.511 2.193-1.014 2.936-0.503 0.744-1.207 1.302-2.112 1.673-0.899 0.371-2.004 0.6-3.314 0.686v0c-1.31 0.086-2.438 0.004-3.384-0.247-0.94-0.251-1.714-0.711-2.323-1.382-0.609-0.671-1.081-1.597-1.418-2.777-0.336-1.18-0.562-2.641-0.675-4.381v0c-0.115-1.76-0.083-3.243 0.097-4.451 0.18-1.208 0.528-2.181 1.044-2.918 0.516-0.745 1.223-1.303 2.122-1.674 0.906-0.372 2.014-0.6 3.324-0.686zM85.344 2.285v0c-1.125 0.074-2 0.347-2.626 0.82-0.627 0.473-1.039 1.221-1.239 2.244-0.205 1.03-0.249 2.441-0.131 4.234v0c0.116 1.773 0.343 3.16 0.682 4.161 0.331 1.001 0.839 1.696 1.521 2.082 0.683 0.387 1.587 0.544 2.712 0.47v0c1.118-0.073 1.987-0.346 2.607-0.818 0.613-0.472 1.026-1.227 1.237-2.264 0.211-1.037 0.259-2.442 0.142-4.215v0c-0.117-1.793-0.348-3.186-0.692-4.179-0.344-0.987-0.851-1.675-1.521-2.063-0.676-0.388-1.574-0.545-2.692-0.472z" fill="#233565" data-fill-palette-color="primary"></path><path d="M116.166 3.743v0c0.748 0.203 1.384 0.393 1.906 0.569 0.529 0.178 1.006 0.366 1.434 0.565 0.435 0.194 0.874 0.423 1.317 0.688v0l-0.761 1.813c-0.485-0.187-0.942-0.352-1.369-0.496-0.428-0.144-0.883-0.291-1.364-0.443-0.489-0.147-1.076-0.313-1.76-0.499v0c-1.068-0.29-1.966-0.311-2.694-0.062-0.734 0.247-1.361 0.825-1.883 1.734-0.527 0.901-1.021 2.202-1.484 3.904v0c-0.463 1.702-0.695 3.074-0.697 4.119-0.01 1.048 0.238 1.865 0.746 2.449 0.501 0.583 1.286 1.019 2.354 1.31v0c1.081 0.294 1.999 0.519 2.754 0.676 0.753 0.163 1.495 0.289 2.226 0.378v0l-0.262 1.949c-0.795 0.018-1.591-0.034-2.39-0.155-0.798-0.121-1.773-0.338-2.925-0.651v0c-1.67-0.454-2.928-1.105-3.776-1.954-0.854-0.851-1.329-1.986-1.424-3.406-0.101-1.422 0.147-3.233 0.746-5.435v0c0.598-2.201 1.301-3.889 2.108-5.063 0.803-1.183 1.788-1.925 2.955-2.227 1.159-0.296 2.574-0.218 4.243 0.237z" fill="#233565" data-fill-palette-color="primary"></path><path d="M144.487 18.17l2.363 1.545-8.304 3.362c-0.258 0.116-0.507 0.207-0.748 0.272-0.237 0.059-0.494 0.113-0.771 0.161v0l-0.027 0.042c0.076 0.295 0.14 0.591 0.192 0.886 0.061 0.294 0.086 0.571 0.074 0.832v0l0.1 9.606-2.447-1.6-0.065-11.222zM136.33 12.837l2.147 1.404-3.003 4.594c-0.294 0.449-0.598 0.86-0.913 1.233-0.315 0.372-0.666 0.741-1.055 1.104v0c-0.176 0.463-0.374 0.924-0.595 1.382-0.211 0.456-0.44 0.873-0.686 1.25v0l-3.532 5.402-2.147-1.404zM133.595 20.09l2.864 1.872-1.089 1.665-2.863-1.872z" fill="#233565" data-fill-palette-color="primary"></path><path d="M160.758 33.788v0c0.545 0.668 1.103 1.35 1.673 2.048 0.566 0.693 1.116 1.387 1.648 2.082 0.529 0.689 1.024 1.359 1.487 2.009v0l-1.604 1.181-4.509-5.523c-0.327-0.401-0.671-0.612-1.032-0.634-0.351-0.021-0.748 0.148-1.189 0.509v0l-8.026 6.554c-0.442 0.361-0.692 0.719-0.752 1.076-0.05 0.358 0.088 0.737 0.416 1.137v0l4.509 5.523-1.462 1.322c-0.544-0.583-1.096-1.206-1.656-1.87-0.569-0.665-1.139-1.342-1.71-2.032-0.581-0.69-1.143-1.369-1.688-2.036v0c-0.679-0.832-0.992-1.676-0.939-2.533 0.048-0.853 0.441-1.593 1.178-2.22v0l8.95-7.309c0.778-0.609 1.587-0.85 2.427-0.723 0.84 0.127 1.6 0.607 2.279 1.439zM151.473 37.416l1.548-1.265 6.164 7.549-1.549 1.264z" fill="#233565" data-fill-palette-color="primary"></path><path d="M175.253 58.939l0.913 2.419-16.727 6.314-0.913-2.419zM173.248 53.627l4.934 13.071-2.084 0.787-4.934-13.071z" fill="#233565" data-fill-palette-color="primary"></path><path d="M23.568 112.383l0.696 2.49-17.218 4.817-0.697-2.49z" fill="#233565" data-fill-palette-color="primary"></path><path d="M32.532 131.062l1.313 2.478c0.313 0.592 0.161 1.062-0.457 1.412v0l-14.519 8.513-1.187-2.241 13.638-7.967-0.242-0.457-13.105 2.665c-0.569 0.144-0.992-0.045-1.267-0.566v0l-0.992-1.872c-0.282-0.533-0.209-1.003 0.221-1.411v0l9.567-9.343-0.242-0.457-14.225 6.859-1.192-2.249 15.19-7.247c0.642-0.303 1.117-0.164 1.424 0.416v0l1.308 2.469c0.261 0.492 0.179 0.948-0.243 1.367v0l-7.875 7.716c-0.286 0.309-0.585 0.595-0.896 0.857-0.311 0.262-0.629 0.547-0.954 0.854v0l0.204 0.387c0.44-0.09 0.857-0.188 1.252-0.292 0.395-0.104 0.812-0.201 1.252-0.292v0l10.764-2.156c0.569-0.144 0.99 0.042 1.263 0.557z" fill="#233565" data-fill-palette-color="primary"></path><path d="M39.949 140.12l1.85 1.89c0.158 0.161 0.249 0.35 0.276 0.565 0.031 0.211-0.007 0.415-0.113 0.611v0l-8.322 16.049-1.885-1.926 7.16-13.242c0.138-0.228 0.274-0.459 0.408-0.691 0.138-0.228 0.265-0.445 0.38-0.65v0l-0.508-0.519c-0.212 0.106-0.434 0.225-0.664 0.358-0.236 0.129-0.476 0.253-0.722 0.372v0l-13.392 6.875-1.864-1.905 16.224-7.976c0.198-0.101 0.402-0.134 0.613-0.099 0.215 0.03 0.402 0.126 0.559 0.288zM30.312 144.988l6.379 6.516-1.535 1.503-6.379-6.517z" fill="#233565" data-fill-palette-color="primary"></path><path d="M53.925 151.222v0c0.53 0.353 1.024 0.705 1.481 1.058 0.462 0.347 0.901 0.704 1.319 1.07 0.408 0.367 0.784 0.761 1.126 1.179v0l-1.273 1.446c-0.438-0.347-0.876-0.683-1.314-1.006-0.438-0.323-0.87-0.631-1.296-0.923-0.423-0.298-0.836-0.581-1.239-0.848v0c-0.762-0.507-1.458-0.867-2.089-1.08-0.625-0.209-1.232-0.207-1.82 0.006-0.585 0.208-1.208 0.653-1.869 1.336-0.662 0.683-1.409 1.65-2.243 2.903v0c-0.944 1.418-1.599 2.611-1.965 3.578-0.362 0.962-0.439 1.778-0.233 2.45 0.203 0.677 0.685 1.268 1.447 1.775v0c0.535 0.356 1.066 0.606 1.591 0.749 0.526 0.143 1.058 0.223 1.597 0.239 0.539 0.016 1.063 0.019 1.573 0.007v0l-0.551 1.438c-0.439 0.122-0.997 0.2-1.674 0.235-0.677 0.035-1.393-0.031-2.149-0.2-0.761-0.172-1.523-0.512-2.284-1.019v0c-1.104-0.735-1.824-1.609-2.161-2.622-0.332-1.009-0.28-2.193 0.155-3.552 0.44-1.355 1.26-2.933 2.457-4.731v0c1.301-1.953 2.527-3.359 3.68-4.217 1.149-0.852 2.333-1.202 3.554-1.05 1.23 0.15 2.623 0.743 4.18 1.779zM52.101 159.47l2.111 1.405-5.732 8.608-1.572-1.047 1.118-2.433 0.124-0.599z" fill="#233565" data-fill-palette-color="primary"></path><path d="M64.673 156.95v0c0.803 0.313 1.622 0.631 2.456 0.956 0.84 0.327 1.66 0.66 2.459 1 0.808 0.336 1.573 0.673 2.296 1.011v0l-0.827 1.823-6.635-2.582c-0.482-0.188-0.884-0.205-1.206-0.054-0.316 0.154-0.578 0.497-0.785 1.029v0l-3.759 9.656c-0.207 0.531-0.248 0.967-0.124 1.306 0.132 0.336 0.44 0.598 0.921 0.786v0l6.635 2.583-0.612 1.874c-0.761-0.239-1.551-0.511-2.371-0.816-0.817-0.296-1.646-0.605-2.489-0.926-0.839-0.312-1.66-0.625-2.463-0.938v0c-1.001-0.39-1.689-0.97-2.064-1.742-0.378-0.766-0.4-1.603-0.068-2.513v0l4.192-10.768c0.374-0.907 0.959-1.512 1.752-1.815 0.794-0.303 1.691-0.259 2.692 0.13zM58.381 164.671l0.722-1.854 9.081 3.535-0.721 1.854z" fill="#233565" data-fill-palette-color="primary"></path><path d="M88.227 161.308v0c0.635 0.037 1.24 0.092 1.813 0.165 0.574 0.067 1.133 0.152 1.679 0.258 0.538 0.111 1.061 0.261 1.567 0.45v0l-0.369 1.891c-0.553-0.079-1.1-0.147-1.641-0.206-0.541-0.058-1.07-0.106-1.586-0.142-0.515-0.043-1.015-0.079-1.498-0.107v0c-0.913-0.053-1.696-0.013-2.348 0.122-0.645 0.135-1.168 0.443-1.568 0.924-0.4 0.475-0.713 1.174-0.939 2.097-0.226 0.923-0.384 2.136-0.471 3.638v0c-0.099 1.701-0.062 3.061 0.111 4.081 0.173 1.013 0.518 1.757 1.035 2.232 0.516 0.482 1.231 0.749 2.145 0.802v0c0.642 0.037 1.226-0.015 1.752-0.157 0.526-0.142 1.026-0.342 1.499-0.599 0.473-0.258 0.927-0.52 1.361-0.788v0l0.25 1.519c-0.318 0.327-0.76 0.676-1.326 1.048-0.566 0.372-1.218 0.676-1.956 0.912-0.744 0.236-1.573 0.327-2.486 0.274v0c-1.324-0.077-2.387-0.468-3.189-1.172-0.796-0.704-1.349-1.752-1.659-3.145-0.304-1.392-0.393-3.167-0.268-5.325v0c0.137-2.343 0.486-4.175 1.048-5.497 0.561-1.315 1.408-2.216 2.538-2.701 1.138-0.491 2.64-0.683 4.506-0.574zM90.816 169.348l2.532 0.148-0.602 10.324-1.886-0.11-0.263-2.665-0.196-0.579z" fill="#233565" data-fill-palette-color="primary"></path><path d="M101.294 160.513l2.599-0.489c0.222-0.042 0.429-0.013 0.623 0.085 0.193 0.092 0.341 0.236 0.446 0.432v0l8.729 15.831-2.649 0.499-7.039-13.306c-0.113-0.242-0.229-0.483-0.348-0.724-0.113-0.242-0.223-0.467-0.33-0.677v0l-0.714 0.135c-0.03 0.235-0.054 0.486-0.07 0.752-0.024 0.268-0.054 0.536-0.091 0.806v0l-1.717 14.955-2.619 0.494 2.372-17.922c0.026-0.221 0.112-0.409 0.258-0.565 0.145-0.162 0.328-0.264 0.55-0.306zM99.993 171.231l8.961-1.688 0.398 2.111-8.962 1.688z" fill="#233565" data-fill-palette-color="primary"></path><path d="M112.236 157.982l2.381-0.955 5.249 13.087c0.205 0.511 0.483 0.839 0.833 0.984 0.36 0.149 0.804 0.117 1.333-0.096v0l5.935-2.38 0.87 1.794c-1.045 0.512-2.117 0.999-3.218 1.462-1.1 0.463-2.201 0.915-3.302 1.357v0c-1.218 0.489-2.213 0.537-2.984 0.146-0.771-0.391-1.339-1.042-1.704-1.952v0z" fill="#233565" data-fill-palette-color="primary"></path><path d="M124.176 152.512l2.157-1.39 7.636 11.854c0.298 0.463 0.633 0.732 1.005 0.808 0.381 0.078 0.812-0.038 1.291-0.347v0l5.375-3.462 1.194 1.596c-0.929 0.701-1.889 1.383-2.881 2.046-0.992 0.663-1.987 1.316-2.985 1.958v0c-1.103 0.711-2.071 0.948-2.902 0.71-0.831-0.237-1.512-0.769-2.044-1.593v0z" fill="#233565" data-fill-palette-color="primary"></path><path d="M137.273 142.512v0c0.621-0.598 1.253-1.208 1.898-1.829 0.649-0.626 1.296-1.23 1.939-1.814 0.644-0.593 1.271-1.146 1.88-1.66v0l1.309 1.515-5.127 4.941c-0.372 0.359-0.557 0.716-0.554 1.073 0.008 0.352 0.209 0.733 0.605 1.143v0l7.19 7.461c0.396 0.411 0.774 0.631 1.134 0.661 0.361 0.021 0.727-0.148 1.1-0.507v0l5.126-4.941 1.445 1.342c-0.536 0.59-1.114 1.194-1.735 1.81-0.612 0.617-1.24 1.241-1.884 1.872-0.635 0.631-1.263 1.245-1.884 1.843v0c-0.773 0.745-1.589 1.126-2.447 1.143-0.854 0.022-1.624-0.309-2.31-0.992v0l-8.018-8.32c-0.667-0.72-0.971-1.504-0.913-2.352 0.058-0.848 0.473-1.644 1.246-2.389zM141.644 151.461l-1.38-1.432 7.017-6.763 1.38 1.432z" fill="#233565" data-fill-palette-color="primary"></path><path d="M147.726 129.268v0c0.788-1.18 1.547-2.048 2.277-2.605 0.739-0.559 1.531-0.795 2.375-0.711 0.849 0.089 1.834 0.507 2.953 1.254v0c0.788 0.526 1.388 1.062 1.798 1.606 0.404 0.541 0.625 1.111 0.663 1.711 0.036 0.59-0.128 1.254-0.492 1.991v0l0.108 0.071c0.217-0.206 0.497-0.374 0.839-0.504 0.333-0.129 0.717-0.203 1.153-0.223 0.441-0.016 0.918 0.075 1.431 0.274v0l5.611 1.713-1.523 2.283-5.499-1.793c-0.66-0.193-1.207-0.216-1.641-0.067-0.43 0.143-0.809 0.46-1.137 0.951v0c-0.604 0.904-1.123 1.677-1.559 2.318-0.44 0.647-0.813 1.183-1.121 1.608-0.305 0.434-0.548 0.786-0.728 1.056v0l-1.685-1.22 3.279-4.913c0.456-0.708 0.742-1.314 0.856-1.82 0.12-0.502 0.047-0.973-0.217-1.412-0.274-0.438-0.761-0.89-1.461-1.358v0c-0.706-0.471-1.308-0.745-1.806-0.823-0.502-0.072-0.964 0.042-1.387 0.341-0.418 0.303-0.86 0.805-1.328 1.505v0c-0.806 1.208-1.493 2.255-2.062 3.143-0.574 0.884-0.962 1.478-1.165 1.781v0l-1.836-0.795c0.309-0.583 0.612-1.126 0.908-1.629 0.294-0.513 0.634-1.063 1.019-1.652 0.381-0.583 0.84-1.276 1.377-2.081zM144.422 134.63l1.424-2.134 14.872 9.926-1.425 2.134z" fill="#233565" data-fill-palette-color="primary"></path><path d="M155.602 112.515l0.95-2.543 9.028 9.816-0.824 2.208-13.264 1.52 0.964-2.58 8.16-0.816c0.366-0.033 0.735-0.044 1.105-0.032 0.377 0.013 0.749 0.022 1.117 0.024v0l0.062-0.168c-0.281-0.232-0.566-0.473-0.855-0.723-0.285-0.241-0.549-0.481-0.792-0.72v0zM163.062 121.501l0.908-2.431 7.256 2.711-0.908 2.431z" fill="#233565" data-fill-palette-color="primary"></path><path d="M7.13 92.476c0-1.153 0.935-2.088 2.088-2.088 1.153 0 2.088 0.935 2.088 2.088 0 1.153-0.935 2.088-2.088 2.088-1.153 0-2.088-0.935-2.088-2.088z" fill="#233565" data-fill-palette-color="primary"></path><path d="M168.067 92.476c0-1.153 0.935-2.088 2.088-2.088 1.153 0 2.088 0.935 2.088 2.088 0 1.153-0.935 2.088-2.088 2.088-1.153 0-2.088-0.935-2.088-2.088z" fill="#233565" data-fill-palette-color="primary"></path></g></svg></g></svg></g></svg></g></svg></g></svg></g></svg></g><defs></defs></svg><rect width="320" height="360" fill="none" stroke="none" visibility="hidden"></rect></g></svg></g></svg>